<svg width="16" height="16" viewBox="0 0 16 16" fill="none" xmlns="http://www.w3.org/2000/svg">
<path d="M2 14.1714H5V9.6C5 9.34095 5.096 9.12396 5.288 8.94903C5.48 8.77409 5.71733 8.68632 6 8.68571H10C10.2833 8.68571 10.521 8.77348 10.713 8.94903C10.905 9.12457 11.0007 9.34156 11 9.6V14.1714H14V5.94286L8 1.82857L2 5.94286V14.1714ZM0 14.1714V5.94286C0 5.65333 0.0709998 5.37905 0.213 5.12C0.355 4.86095 0.550667 4.64762 0.8 4.48L6.8 0.365714C7.15 0.121905 7.55 0 8 0C8.45 0 8.85 0.121905 9.2 0.365714L15.2 4.48C15.45 4.64762 15.646 4.86095 15.788 5.12C15.93 5.37905 16.0007 5.65333 16 5.94286V14.1714C16 14.6743 15.804 15.1049 15.412 15.4633C15.02 15.8217 14.5493 16.0006 14 16H10C9.71666 16 9.47933 15.9122 9.288 15.7367C9.09666 15.5611 9.00066 15.3441 9 15.0857V10.5143H7V15.0857C7 15.3448 6.904 15.5621 6.712 15.7376C6.52 15.9131 6.28267 16.0006 6 16H2C1.45 16 0.979333 15.8211 0.588 15.4633C0.196666 15.1055 0.000666666 14.6749 0 14.1714Z" fill="#FFDF9E"/>
</svg>
