<svg width="20" height="20" viewBox="0 0 20 20" fill="none" xmlns="http://www.w3.org/2000/svg">
<path d="M10.0002 2.00334C9.73513 2.00334 9.48088 2.10866 9.29341 2.29613C9.10595 2.4836 9.00063 2.73787 9.00063 3.00299C9.00063 4.69439 6.95541 5.54209 5.75886 4.34551C5.66665 4.25003 5.55635 4.17388 5.43439 4.12149C5.31243 4.0691 5.18126 4.04152 5.04854 4.04037C4.91581 4.03922 4.78418 4.06451 4.66133 4.11477C4.53848 4.16503 4.42687 4.23926 4.33301 4.33312C4.23916 4.42698 4.16493 4.53859 4.11467 4.66144C4.06441 4.7843 4.03911 4.91593 4.04027 5.04866C4.04142 5.18139 4.069 5.31257 4.12139 5.43453C4.17378 5.55649 4.24993 5.66679 4.3454 5.75901C5.54195 6.95558 4.69527 9.00086 3.00291 9.00086C2.7378 9.00086 2.48354 9.10617 2.29608 9.29364C2.10861 9.48111 2.00329 9.73538 2.00329 10.0005C2.00329 10.2656 2.10861 10.5199 2.29608 10.7074C2.48354 10.8948 2.7378 11.0001 3.00291 11.0001C4.69427 11.0001 5.54195 13.0454 4.3454 14.242C4.16331 14.4305 4.06256 14.683 4.06484 14.9451C4.06711 15.2072 4.17224 15.458 4.35758 15.6433C4.54292 15.8287 4.79363 15.9338 5.05573 15.9361C5.31783 15.9383 5.57033 15.8376 5.75886 15.6555C6.95541 14.4589 9.00063 15.3056 9.00063 16.998C9.00063 17.2631 9.10595 17.5174 9.29341 17.7049C9.48088 17.8923 9.73513 17.9977 10.0002 17.9977C10.2654 17.9977 10.5196 17.8923 10.7071 17.7049C10.8946 17.5174 10.9999 17.2631 10.9999 16.998C10.9999 15.3066 13.0451 14.4589 14.2416 15.6555C14.3338 15.751 14.4441 15.8271 14.5661 15.8795C14.6881 15.9319 14.8192 15.9595 14.952 15.9606C15.0847 15.9618 15.2163 15.9365 15.3392 15.8862C15.462 15.836 15.5736 15.7617 15.6675 15.6679C15.7613 15.574 15.8356 15.4624 15.8858 15.3396C15.9361 15.2167 15.9614 15.0851 15.9602 14.9523C15.9591 14.8196 15.9315 14.6884 15.8791 14.5665C15.8267 14.4445 15.7506 14.3342 15.6551 14.242C14.4586 13.0454 15.3052 11.0001 16.9976 11.0001C17.2627 11.0001 17.517 10.8948 17.7044 10.7074C17.8919 10.5199 17.9972 10.2656 17.9972 10.0005C17.9972 9.73538 17.8919 9.48111 17.7044 9.29364C17.517 9.10617 17.2627 9.00086 16.9976 9.00086C15.3062 9.00086 14.4586 6.95558 15.6551 5.75901C15.8372 5.57047 15.9379 5.31796 15.9357 5.05586C15.9334 4.79375 15.8283 4.54303 15.6429 4.35769C15.4576 4.17235 15.2069 4.06721 14.9448 4.06494C14.6827 4.06266 14.4302 4.16342 14.2416 4.34551C13.0451 5.54209 10.9999 4.69539 10.9999 3.00299C10.9999 2.73787 10.8946 2.4836 10.7071 2.29613C10.5196 2.10866 10.2654 2.00334 10.0002 2.00334ZM7.00939 2.78007C7.06467 2.02461 7.40377 1.31805 7.95858 0.802349C8.51339 0.286645 9.24279 0 10.0002 0C10.7577 0 11.4871 0.286645 12.0419 0.802349C12.5967 1.31805 12.9358 2.02461 12.9911 2.78007C13.5647 2.28743 14.3032 2.02964 15.0588 2.05833C15.8143 2.08702 16.5312 2.40007 17.0657 2.93479C17.6003 3.46951 17.9132 4.18644 17.9417 4.94202C17.9702 5.69761 17.7123 6.43607 17.2195 7.00956C17.975 7.06472 18.6815 7.40372 19.1973 7.95845C19.7131 8.51318 19.9999 9.24256 20 10C20.0001 10.7575 19.7136 11.487 19.198 12.0419C18.6824 12.5968 17.9759 12.936 17.2205 12.9914C17.7131 13.565 17.9709 14.3036 17.9422 15.0591C17.9135 15.8147 17.6005 16.5316 17.0658 17.0662C16.5311 17.6008 15.8142 17.9136 15.0586 17.9422C14.303 17.9707 13.5646 17.7127 12.9911 17.2199C12.9358 17.9754 12.5967 18.6819 12.0419 19.1977C11.4871 19.7134 10.7577 20 10.0002 20C9.24279 20 8.51339 19.7134 7.95858 19.1977C7.40377 18.6819 7.06467 17.9754 7.00939 17.2199C6.43591 17.7127 5.69746 17.9707 4.9419 17.9422C4.18634 17.9136 3.46943 17.6008 2.93472 17.0662C2.40001 16.5316 2.08697 15.8147 2.05828 15.0591C2.02959 14.3036 2.28737 13.565 2.78 12.9914C2.02456 12.9362 1.31802 12.597 0.802329 12.0422C0.286638 11.4874 0 10.758 0 10.0005C0 9.24302 0.286638 8.5136 0.802329 7.95878C1.31802 7.40396 2.02456 7.06485 2.78 7.00956C2.28587 6.43618 2.02683 5.69713 2.05487 4.94072C2.0829 4.1843 2.39593 3.46646 2.93115 2.93123C3.46638 2.39599 4.1842 2.08295 4.94059 2.05492C5.69699 2.02688 6.43601 2.28592 7.00939 2.78007Z" fill="#FFDF9E"/>
<path d="M10.0002 8.00121C9.47002 8.00121 8.9615 8.21185 8.58657 8.58679C8.21164 8.96173 8.00101 9.47026 8.00101 10.0005C8.00101 10.5307 8.21164 11.0393 8.58657 11.4142C8.9615 11.7892 9.47002 11.9998 10.0002 11.9998C10.5305 11.9998 11.039 11.7892 11.4139 11.4142C11.7889 11.0393 11.9995 10.5307 11.9995 10.0005C11.9995 9.47026 11.7889 8.96173 11.4139 8.58679C11.039 8.21185 10.5305 8.00121 10.0002 8.00121ZM7.17332 7.17351C7.54217 6.7916 7.98338 6.48698 8.47121 6.27742C8.95904 6.06786 9.48372 5.95755 10.0146 5.95294C10.5456 5.94833 11.0721 6.0495 11.5635 6.25055C12.0549 6.4516 12.5013 6.74851 12.8767 7.12395C13.2522 7.49938 13.5491 7.94583 13.7501 8.43724C13.9512 8.92865 14.0523 9.45518 14.0477 9.98611C14.0431 10.517 13.9328 11.0417 13.7232 11.5296C13.5137 12.0174 13.2091 12.4586 12.8272 12.8275C12.073 13.5559 11.063 13.9589 10.0146 13.9498C8.96625 13.9407 7.96338 13.5202 7.22203 12.7788C6.48068 12.0374 6.06016 11.0345 6.05105 9.98611C6.04194 8.9377 6.44497 7.92765 7.17332 7.17351Z" fill="#FFDF9E"/>
</svg>
