<svg width="20" height="20" viewBox="0 0 20 20" fill="none" xmlns="http://www.w3.org/2000/svg">
<mask id="path-1-inside-1_845_1234" fill="white">
<path d="M17.5 1.25C17.8315 1.25 18.1495 1.3817 18.3839 1.61612C18.6183 1.85054 18.75 2.16848 18.75 2.5V17.5C18.75 17.8315 18.6183 18.1495 18.3839 18.3839C18.1495 18.6183 17.8315 18.75 17.5 18.75H2.5C2.16848 18.75 1.85054 18.6183 1.61612 18.3839C1.3817 18.1495 1.25 17.8315 1.25 17.5V2.5C1.25 2.16848 1.3817 1.85054 1.61612 1.61612C1.85054 1.3817 2.16848 1.25 2.5 1.25H17.5ZM2.5 0C1.83696 0 1.20107 0.263392 0.732233 0.732233C0.263392 1.20107 0 1.83696 0 2.5L0 17.5C0 18.163 0.263392 18.7989 0.732233 19.2678C1.20107 19.7366 1.83696 20 2.5 20H17.5C18.163 20 18.7989 19.7366 19.2678 19.2678C19.7366 18.7989 20 18.163 20 17.5V2.5C20 1.83696 19.7366 1.20107 19.2678 0.732233C18.7989 0.263392 18.163 0 17.5 0L2.5 0Z"/>
</mask>
<path d="M1.25 17.5H-0.25H1.25ZM1.25 2.5H2.75H1.25ZM2.5 1.25V-0.25V1.25ZM2.5 0V-1.5V0ZM0 2.5H-1.5H0ZM0 17.5H-1.5H0ZM17.5 2.75C17.4337 2.75 17.3701 2.72366 17.3232 2.67678L19.4445 0.555456C18.9288 0.0397314 18.2293 -0.25 17.5 -0.25V2.75ZM17.3232 2.67678C17.2763 2.62989 17.25 2.5663 17.25 2.5H20.25C20.25 1.77065 19.9603 1.07118 19.4445 0.555456L17.3232 2.67678ZM17.25 2.5V17.5H20.25V2.5H17.25ZM17.25 17.5C17.25 17.4337 17.2763 17.3701 17.3232 17.3232L19.4445 19.4445C19.9603 18.9288 20.25 18.2293 20.25 17.5H17.25ZM17.3232 17.3232C17.3701 17.2763 17.4337 17.25 17.5 17.25V20.25C18.2293 20.25 18.9288 19.9603 19.4445 19.4445L17.3232 17.3232ZM17.5 17.25H2.5V20.25H17.5V17.25ZM2.5 17.25C2.5663 17.25 2.62989 17.2763 2.67678 17.3232L0.555456 19.4445C1.07118 19.9603 1.77065 20.25 2.5 20.25V17.25ZM2.67678 17.3232C2.72366 17.3701 2.75 17.4337 2.75 17.5H-0.25C-0.25 18.2293 0.0397314 18.9288 0.555456 19.4445L2.67678 17.3232ZM2.75 17.5V2.5H-0.25V17.5H2.75ZM2.75 2.5C2.75 2.5663 2.72366 2.62989 2.67678 2.67678L0.555456 0.555456C0.0397311 1.07118 -0.25 1.77065 -0.25 2.5H2.75ZM2.67678 2.67678C2.62989 2.72366 2.5663 2.75 2.5 2.75V-0.25C1.77065 -0.25 1.07118 0.0397311 0.555456 0.555456L2.67678 2.67678ZM2.5 2.75H17.5V-0.25H2.5V2.75ZM2.5 -1.5C1.43913 -1.5 0.421718 -1.07857 -0.328427 -0.328427L1.79289 1.79289C1.98043 1.60536 2.23478 1.5 2.5 1.5V-1.5ZM-0.328427 -0.328427C-1.07857 0.421718 -1.5 1.43913 -1.5 2.5H1.5C1.5 2.23478 1.60536 1.98043 1.79289 1.79289L-0.328427 -0.328427ZM-1.5 2.5V17.5H1.5V2.5H-1.5ZM-1.5 17.5C-1.5 18.5609 -1.07857 19.5783 -0.328427 20.3284L1.79289 18.2071C1.60536 18.0196 1.5 17.7652 1.5 17.5H-1.5ZM-0.328427 20.3284C0.421718 21.0786 1.43913 21.5 2.5 21.5V18.5C2.23478 18.5 1.98043 18.3946 1.79289 18.2071L-0.328427 20.3284ZM2.5 21.5H17.5V18.5H2.5V21.5ZM17.5 21.5C18.5609 21.5 19.5783 21.0786 20.3284 20.3284L18.2071 18.2071C18.0196 18.3946 17.7652 18.5 17.5 18.5V21.5ZM20.3284 20.3284C21.0786 19.5783 21.5 18.5609 21.5 17.5H18.5C18.5 17.7652 18.3946 18.0196 18.2071 18.2071L20.3284 20.3284ZM21.5 17.5V2.5H18.5V17.5H21.5ZM21.5 2.5C21.5 1.43913 21.0786 0.421718 20.3284 -0.328427L18.2071 1.79289C18.3946 1.98043 18.5 2.23478 18.5 2.5H21.5ZM20.3284 -0.328427C19.5783 -1.07857 18.5609 -1.5 17.5 -1.5V1.5C17.7652 1.5 18.0196 1.60536 18.2071 1.79289L20.3284 -0.328427ZM17.5 -1.5H2.5V1.5H17.5V-1.5Z" fill="#FFDF9E" mask="url(#path-1-inside-1_845_1234)"/>
<path d="M10.2834 5.86998L10.8409 5.36826L10.2834 5.86998C10.3191 5.90971 10.3461 5.9565 10.3626 6.00733C10.3791 6.05816 10.3848 6.1119 10.3791 6.16505L10.3787 6.16929L10 9.96394L9.6213 6.16929L9.62131 6.16929L9.62086 6.16505C9.61525 6.1119 9.62088 6.05817 9.63737 6.00733C9.65387 5.9565 9.68087 5.90971 9.71662 5.86998C9.75237 5.83026 9.79608 5.79849 9.8449 5.77675C9.89371 5.75501 9.94656 5.74377 10 5.74377C10.0534 5.74377 10.1063 5.75501 10.1551 5.77675C10.2039 5.79849 10.2476 5.83026 10.2834 5.86998ZM9.5025 13.75C9.5025 13.6844 9.51544 13.6193 9.54056 13.5587C9.56569 13.498 9.60252 13.4429 9.64895 13.3965C9.69538 13.35 9.7505 13.3132 9.81116 13.2881C9.87182 13.263 9.93684 13.25 10.0025 13.25C10.0682 13.25 10.1332 13.263 10.1938 13.2881C10.2545 13.3132 10.3096 13.35 10.3561 13.3965C10.4025 13.4429 10.4393 13.498 10.4644 13.5587C10.4896 13.6193 10.5025 13.6844 10.5025 13.75C10.5025 13.8826 10.4498 14.0098 10.3561 14.1036C10.2623 14.1973 10.1351 14.25 10.0025 14.25C9.8699 14.25 9.74272 14.1973 9.64895 14.1036C9.55518 14.0098 9.5025 13.8826 9.5025 13.75Z" stroke="#FFDF9E" stroke-width="1.5"/>
</svg>
