<svg width="24" height="24" viewBox="0 0 24 24" fill="none" xmlns="http://www.w3.org/2000/svg">
<path d="M11 -0.00195312H13.004V2.00205H11V-0.00195312ZM4.224 2.80505L5.641 4.22205L4.224 5.63905L2.807 4.22205L4.224 2.80505ZM19.78 2.80505L21.197 4.22205L19.78 5.63905L18.363 4.22205L19.78 2.80505ZM12.001 6.00205C10.4097 6.00205 8.88358 6.63419 7.75836 7.75941C6.63314 8.88462 6.001 10.4107 6.001 12.002C6.001 13.5933 6.63314 15.1195 7.75836 16.2447C8.88358 17.3699 10.4097 18.002 12.001 18.002C13.5923 18.002 15.1184 17.3699 16.2436 16.2447C17.3689 15.1195 18.001 13.5933 18.001 12.002C18.001 10.4107 17.3689 8.88462 16.2436 7.75941C15.1184 6.63419 13.5923 6.00205 12.001 6.00205ZM4.001 12.002C4.001 9.88031 4.84385 7.84548 6.34415 6.34519C7.84444 4.8449 9.87927 4.00205 12.001 4.00205C14.1227 4.00205 16.1576 4.8449 17.6579 6.34519C19.1581 7.84548 20.001 9.88031 20.001 12.002C20.001 14.1238 19.1581 16.1586 17.6579 17.6589C16.1576 19.1592 14.1227 20.002 12.001 20.002C9.87927 20.002 7.84444 19.1592 6.34415 17.6589C4.84385 16.1586 4.001 14.1238 4.001 12.002ZM0 10.998H2.004V13.002H0V10.998ZM22 10.998H24.004V13.002H22V10.998ZM4.224 18.362L5.641 19.779L4.224 21.197L2.807 19.779L4.224 18.362ZM19.78 18.362L21.197 19.779L19.78 21.196L18.363 19.779L19.78 18.362ZM11.001 21.999H13.005V24.002H11.001V21.999Z" fill="#FFDF9E"/>
</svg>
